<?xml version="1.0" encoding="utf-8"?>
<!-- Generator: Adobe Illustrator 23.1.0, SVG Export Plug-In . SVG Version: 6.00 Build 0)  -->
<svg version="1.1" id="Layer_1" xmlns="http://www.w3.org/2000/svg" xmlns:xlink="http://www.w3.org/1999/xlink" x="0px" y="0px"
	 viewBox="0 0 90.78 89.29" style="enable-background:new 0 0 90.78 89.29;" xml:space="preserve">
<style type="text/css">
	.st0{fill:#FFFFFF;}
	.st1{fill:#886D54;}
</style>
<g>
	<path class="st0" d="M85.1,0H5.64C2.93,0.02,0.75,2.22,0.75,4.93v79.46c0.02,2.71,2.22,4.89,4.93,4.89h42.77V54.76H36.84V41.24
		h11.61v-9.95c0-11.53,7.04-17.81,17.33-17.81c3.47-0.01,6.94,0.16,10.39,0.54v12.05h-7.09c-5.6,0-6.69,2.68-6.69,6.56v8.61h13.36
		l-1.79,13.52H62.35v34.53H85.1c2.72,0,4.93-2.21,4.93-4.93V4.89C90.01,2.18,87.81,0,85.1,0z"/>
	<path id="f_2_" class="st1" d="M62.35,89.29V54.76h11.61l1.79-13.52H62.35v-8.61c0-3.9,1.09-6.56,6.69-6.56h7.09V14.02
		c-3.45-0.37-6.92-0.55-10.39-0.54c-10.29,0-17.33,6.25-17.33,17.81v9.95H36.8v13.52h11.61v34.53H62.35z"/>
</g>
</svg>
