<?xml version="1.0" encoding="utf-8"?>
<!-- Generator: Adobe Illustrator 23.1.0, SVG Export Plug-In . SVG Version: 6.00 Build 0)  -->
<svg version="1.1" id="Layer_1" xmlns="http://www.w3.org/2000/svg" xmlns:xlink="http://www.w3.org/1999/xlink" x="0px" y="0px"
	 viewBox="0 0 90.78 89.29" style="enable-background:new 0 0 90.78 89.29;" xml:space="preserve">
<style type="text/css">
	.st0{fill:#1DA1F2;}
	.st1{fill:#FFFFFF;}
	.st2{fill:#886D54;}
</style>
<g>
	<rect x="0.75" y="0" class="st0" width="89.29" height="89.29"/>
	<g>
		<rect x="0.75" y="0" class="st1" width="89.29" height="89.29"/>
		<path class="st2" d="M35.04,67.32c21.06,0,32.57-17.45,32.57-32.57c0-0.5-0.01-0.99-0.03-1.48c2.24-1.62,4.18-3.63,5.71-5.93
			c-2.05,0.91-4.26,1.53-6.57,1.8c2.36-1.42,4.18-3.66,5.03-6.33c-2.21,1.31-4.66,2.27-7.27,2.78c-2.09-2.23-5.06-3.62-8.36-3.62
			c-6.32,0-11.45,5.13-11.45,11.45c0,0.9,0.1,1.77,0.3,2.61c-9.51-0.48-17.95-5.03-23.6-11.96c-0.98,1.69-1.55,3.66-1.55,5.75
			c0,3.97,2.02,7.48,5.09,9.53c-1.88-0.06-3.64-0.57-5.19-1.43c0,0.05,0,0.1,0,0.15c0,5.55,3.95,10.17,9.19,11.22
			c-0.96,0.26-1.97,0.4-3.02,0.4c-0.74,0-1.45-0.07-2.15-0.21c1.46,4.55,5.68,7.86,10.7,7.95c-3.92,3.07-8.86,4.9-14.22,4.9
			c-0.92,0-1.84-0.05-2.73-0.16C22.55,65.42,28.57,67.32,35.04,67.32"/>
	</g>
</g>
</svg>
