<?xml version="1.0" encoding="utf-8"?>
<!-- Generator: Adobe Illustrator 23.1.0, SVG Export Plug-In . SVG Version: 6.00 Build 0)  -->
<svg version="1.1" id="Layer_1" xmlns="http://www.w3.org/2000/svg" xmlns:xlink="http://www.w3.org/1999/xlink" x="0px" y="0px"
	 viewBox="0 0 90.78 89.29" style="enable-background:new 0 0 90.78 89.29;" xml:space="preserve">
<style type="text/css">
	.st0{fill:#886D54;}
	.st1{fill:#FFFFFF;}
</style>
<g>
	<g>
		<rect x="0.75" y="0" class="st0" width="89.29" height="89.29"/>
		<g>
			<rect x="0.75" y="0" class="st1" width="89.29" height="89.29"/>
		</g>
	</g>
	<path class="st0" d="M69.38,24.77H21.4c-1.76,0-3.2,1.43-3.2,3.2v34.92c0,1.76,1.43,3.2,3.2,3.2h47.99c1.76,0,3.2-1.43,3.2-3.2
		V27.97C72.58,26.21,71.14,24.77,69.38,24.77z M68.5,59.75L55.55,46.8L68.5,33.85V59.75z M43.13,54.7c0.6,0.6,1.41,0.94,2.26,0.94
		c0.85,0,1.66-0.33,2.26-0.94l5.02-5.02L64.98,62H25.8l12.31-12.31L43.13,54.7z M67.73,28.85L45.39,51.19L23.05,28.85H67.73z
		 M35.23,46.8L22.28,59.75v-25.9L35.23,46.8z"/>
</g>
</svg>
